<svg width="400" height="90" viewBox="0 0 400 90" xmlns="http://www.w3.org/2000/svg">
  <defs>
    <linearGradient id="skyN2" x1="0" y1="0" x2="0" y2="1">
      <stop offset="0%" stop-color="#2a0a08"/>
      <stop offset="50%" stop-color="#6b1a12"/>
      <stop offset="100%" stop-color="#c0392b"/>
    </linearGradient>
    <linearGradient id="mtBack" x1="0" y1="0" x2="0" y2="1">
      <stop offset="0%" stop-color="#5c1e18"/>
      <stop offset="100%" stop-color="#3a1310"/>
    </linearGradient>
    <linearGradient id="mtFront" x1="0" y1="0" x2="0" y2="1">
      <stop offset="0%" stop-color="#3a1310"/>
      <stop offset="100%" stop-color="#220b09"/>
    </linearGradient>
    <radialGradient id="glowN2" cx="72%" cy="88%" r="60%">
      <stop offset="0%" stop-color="#ffb020" stop-opacity="0.8"/>
      <stop offset="45%" stop-color="#ff7a1a" stop-opacity="0.3"/>
      <stop offset="100%" stop-color="#ff7a1a" stop-opacity="0"/>
    </radialGradient>
    <linearGradient id="flameOuterN2" x1="0" y1="1" x2="0" y2="0">
      <stop offset="0%" stop-color="#ffdf6b"/>
      <stop offset="45%" stop-color="#ffb020"/>
      <stop offset="100%" stop-color="#ff5b1a"/>
    </linearGradient>
    <linearGradient id="flameInnerN2" x1="0" y1="1" x2="0" y2="0">
      <stop offset="0%" stop-color="#ff8a4d"/>
      <stop offset="60%" stop-color="#e0281a"/>
      <stop offset="100%" stop-color="#8a140c"/>
    </linearGradient>
    <linearGradient id="logGradN2" x1="0" y1="0" x2="0" y2="1">
      <stop offset="0%" stop-color="#7a4a2a"/>
      <stop offset="100%" stop-color="#3a2013"/>
    </linearGradient>
    <clipPath id="bannerClipNv3">
      <rect x="0" y="0" width="400" height="90" rx="10"/>
    </clipPath>
  </defs>

  <g clip-path="url(#bannerClipNv3)">
    <rect width="400" height="90" fill="url(#skyN2)"/>

    <g fill="#ffe9a8" opacity="0.65">
      <circle cx="35" cy="12" r="0.8"/>
      <circle cx="65" cy="7" r="0.6"/>
      <circle cx="105" cy="16" r="0.7"/>
      <circle cx="150" cy="9" r="0.5"/>
      <circle cx="18" cy="22" r="0.5"/>
      <circle cx="130" cy="24" r="0.5"/>
    </g>

    <path d="M0 60
             C 20 44, 45 40, 65 48
             C 85 56, 100 30, 125 26
             C 150 22, 165 42, 190 50
             C 215 58, 235 36, 260 32
             C 290 27, 310 50, 340 55
             C 365 59, 385 48, 400 52
             L 400 90 L 0 90 Z"
          fill="url(#mtBack)"/>

    <path d="M0 74
             C 25 62, 55 58, 80 68
             C 105 78, 120 56, 150 52
             C 180 48, 200 66, 230 70
             C 260 74, 280 58, 310 60
             C 335 62, 355 74, 400 70
             L 400 90 L 0 90 Z"
          fill="url(#mtFront)"/>

    <path d="M118 57 C 122 53, 128 53, 132 57 C 128 58.5, 122 58.5, 118 57 Z" fill="#f4d9c8" opacity="0.5"/>
    <path d="M262 59 C 266 55, 272 55, 276 59 C 272 60.5, 266 60.5, 262 59 Z" fill="#f4d9c8" opacity="0.4"/>

    <rect width="400" height="90" fill="url(#glowN2)"/>

    <g transform="translate(300,10)">
      <rect x="-28" y="58" width="56" height="7" rx="3" fill="url(#logGradN2)" transform="rotate(-4 0 61)"/>
      <rect x="-28" y="58" width="56" height="7" rx="3" fill="url(#logGradN2)" transform="rotate(5 0 61)"/>

      <path d="M0 66c-13 0-20-9-20-19 0-11 8-15 10-24 1 6 4 7 4 13 0-7 3-12 7-17 1 9 7 12 7 22 0 10-3 15-8 25z" fill="url(#flameOuterN2)"/>
      <path d="M0 66c-8 0-13-6-13-13 0-7 5-10 6-16 1 4 2 4 2 9 0-4 2-8 5-11 1 6 4 8 4 14 0 6-1 10-4 17z" fill="url(#flameInnerN2)"/>
      <ellipse cx="0" cy="46" rx="3.5" ry="5" fill="#ffe9a8" opacity="0.85"/>

      <circle cx="-14" cy="20" r="1.4" fill="#ffb020" opacity="0.9"/>
      <circle cx="10" cy="10" r="1" fill="#ffdf6b" opacity="0.85"/>
      <circle cx="4" cy="0" r="0.8" fill="#ffb020" opacity="0.7"/>
      <circle cx="-6" cy="-8" r="0.6" fill="#ffdf6b" opacity="0.6"/>
    </g>

    <g transform="translate(355,34) scale(0.5)" opacity="0.85">
      <path d="M0 66c-13 0-20-9-20-19 0-11 8-15 10-24 1 6 4 7 4 13 0-7 3-12 7-17 1 9 7 12 7 22 0 10-3 15-8 25z" fill="url(#flameOuterN2)"/>
      <path d="M0 66c-8 0-13-6-13-13 0-7 5-10 6-16 1 4 2 4 2 9 0-4 2-8 5-11 1 6 4 8 4 14 0 6-1 10-4 17z" fill="url(#flameInnerN2)"/>
    </g>

    <g fill="#1a0705" opacity="0.4">
      <circle cx="250" cy="82" r="1.3"/>
      <circle cx="270" cy="85" r="1"/>
      <circle cx="340" cy="83" r="1.1"/>
      <circle cx="200" cy="80" r="0.9"/>
    </g>
  </g>

  <rect x="0" y="0" width="400" height="90" rx="10" fill="none" stroke="#1a1a1a" stroke-width="2"/>
</svg>
