<svg width="400" height="90" viewBox="0 0 400 90" xmlns="http://www.w3.org/2000/svg">
  <defs>
    <!-- Deep night-blue sky -->
    <linearGradient id="skyGrad" x1="0" y1="0" x2="0" y2="1">
      <stop offset="0%" stop-color="#0a0f25"/>
      <stop offset="60%" stop-color="#141e46"/>
      <stop offset="100%" stop-color="#2a3b68"/>
    </linearGradient>

    <!-- Aurora Waves -->
    <linearGradient id="aurora1" x1="0" y1="0" x2="1" y2="1">
      <stop offset="0%" stop-color="#00f2fe" stop-opacity="0.7"/>
      <stop offset="100%" stop-color="#4facfe" stop-opacity="0"/>
    </linearGradient>
    <linearGradient id="aurora2" x1="0" y1="1" x2="1" y2="0">
      <stop offset="0%" stop-color="#b026ff" stop-opacity="0.6"/>
      <stop offset="100%" stop-color="#fdfbfb" stop-opacity="0"/>
    </linearGradient>

    <!-- Mountain silhouettes -->
    <linearGradient id="mtBack" x1="0" y1="0" x2="0" y2="1">
      <stop offset="0%" stop-color="#152042"/>
      <stop offset="100%" stop-color="#0d142b"/>
    </linearGradient>
    <linearGradient id="mtFront" x1="0" y1="0" x2="0" y2="1">
      <stop offset="0%" stop-color="#0d142b"/>
      <stop offset="100%" stop-color="#050812"/>
    </linearGradient>
    <linearGradient id="mtIce" x1="0" y1="0" x2="0" y2="1">
      <stop offset="0%" stop-color="#4facfe" stop-opacity="0.4"/>
      <stop offset="100%" stop-color="#00f2fe" stop-opacity="0.1"/>
    </linearGradient>
    
    <clipPath id="bannerClip">
      <rect x="0" y="0" width="400" height="90" rx="10"/>
    </clipPath>
  </defs>

  <g clip-path="url(#bannerClip)">
    <!-- Sky background -->
    <rect width="400" height="90" fill="url(#skyGrad)"/>

    <!-- Stars -->
    <g fill="#ffffff" opacity="0.8">
      <circle cx="45" cy="15" r="0.8"/>
      <circle cx="85" cy="25" r="0.6"/>
      <circle cx="120" cy="10" r="1"/>
      <circle cx="180" cy="20" r="0.7"/>
      <circle cx="220" cy="8" r="0.5"/>
      <circle cx="270" cy="28" r="0.8"/>
      <circle cx="310" cy="12" r="1.2"/>
      <circle cx="360" cy="22" r="0.6"/>
      <circle cx="390" cy="15" r="0.9"/>
    </g>

    <!-- Aurora Waves -->
    <path d="M-20 40 Q 80 10, 160 30 T 300 20 T 420 40 L 420 0 L -20 0 Z" fill="url(#aurora1)" opacity="0.8"/>
    <path d="M-20 60 Q 100 20, 200 45 T 350 15 T 420 50 L 420 0 L -20 0 Z" fill="url(#aurora2)" opacity="0.7"/>

    <!-- Layered Icy Mountain Silhouettes (Back) -->
    <path d="M0 65 L 40 45 L 80 60 L 130 35 L 180 55 L 240 25 L 300 50 L 350 35 L 400 60 L 400 90 L 0 90 Z" fill="url(#mtBack)"/>
    <!-- Ice caps back -->
    <path d="M130 35 L 142 43 L 135 50 L 122 45 Z" fill="url(#mtIce)"/>
    <path d="M240 25 L 255 35 L 248 45 L 230 40 Z" fill="url(#mtIce)"/>

    <!-- Layered Icy Mountain Silhouettes (Front) -->
    <path d="M-10 90 L 20 65 L 60 80 L 110 50 L 160 75 L 210 40 L 270 70 L 330 45 L 380 65 L 410 90 Z" fill="url(#mtFront)"/>
    <!-- Ice caps front -->
    <path d="M110 50 L 120 58 L 114 65 L 102 60 Z" fill="url(#mtIce)"/>
    <path d="M210 40 L 225 50 L 218 60 L 198 55 Z" fill="url(#mtIce)"/>
    <path d="M330 45 L 342 53 L 335 60 L 322 55 Z" fill="url(#mtIce)"/>

  </g>
</svg>
